<?xml version="1.0" encoding="UTF-8" standalone="no"?>
<svg
   xmlns:dc="http://purl.org/dc/elements/1.1/"
   xmlns:cc="http://creativecommons.org/ns#"
   xmlns:rdf="http://www.w3.org/1999/02/22-rdf-syntax-ns#"
   xmlns:svg="http://www.w3.org/2000/svg"
   xmlns="http://www.w3.org/2000/svg"
   xmlns:sodipodi="http://sodipodi.sourceforge.net/DTD/sodipodi-0.dtd"
   xmlns:inkscape="http://www.inkscape.org/namespaces/inkscape"
   inkscape:version="1.0 (4035a4fb49, 2020-05-01)"
   sodipodi:docname="evenement.svg"
   viewBox="0 0 220.8 173.60001"
   height="173.60001"
   width="220.8"
   id="svg10"
   version="1.1">
  <metadata
     id="metadata16">
    <rdf:RDF>
      <cc:Work
         rdf:about="">
        <dc:format>image/svg+xml</dc:format>
        <dc:type
           rdf:resource="http://purl.org/dc/dcmitype/StillImage" />
        <dc:title></dc:title>
      </cc:Work>
    </rdf:RDF>
  </metadata>
  <defs
     id="defs14" />
  <sodipodi:namedview
     inkscape:current-layer="g18"
     inkscape:window-maximized="1"
     inkscape:window-y="-9"
     inkscape:window-x="-9"
     inkscape:cy="78.433738"
     inkscape:cx="110.4"
     inkscape:zoom="4.7811058"
     showgrid="false"
     id="namedview12"
     inkscape:window-height="1001"
     inkscape:window-width="1920"
     inkscape:pageshadow="2"
     inkscape:pageopacity="0"
     guidetolerance="10"
     gridtolerance="10"
     objecttolerance="10"
     borderopacity="1"
     bordercolor="#666666"
     pagecolor="#ffffff" />
  <g
     id="g18"
     inkscape:label="Image"
     inkscape:groupmode="layer">
    <path
       id="path22"
       d="m 200.78667,163.28473 c -1.74541,-1.22254 -2.48145,-3.56713 -1.11983,-3.56713 1.07718,0 3.51672,3.02182 3.20193,3.9662 -0.18256,0.54765 -0.93688,0.40307 -2.0821,-0.39907 z M 15.925835,161.61898 c 1.193078,-1.19308 2.502207,-1.84921 3.033932,-1.52059 1.334298,0.82464 -1.348713,3.61921 -3.474732,3.61921 -1.565082,0 -1.540422,-0.11741 0.4408,-2.09862 z m -4.687418,-0.81012 c -0.729765,-1.90174 0.792341,-3.85286 3.233116,-4.1444 2.729178,-0.32598 2.948784,2.38143 0.341305,4.20778 -2.254579,1.57917 -2.948841,1.56686 -3.574421,-0.0634 z m 191.251933,-0.73234 c -0.93241,-1.42302 -1.0835,-2.29494 -0.49898,-2.87946 1.14121,-1.14121 4.01476,-0.11938 5.03731,1.79125 1.83621,3.43099 -2.34618,4.43386 -4.53833,1.08821 z M 17.827934,155.5441 c -4.601385,-5.37568 -2.622217,-8.57935 2.101477,-3.40165 3.30914,3.6272 4.084034,4.96776 3.457516,5.98149 -0.962326,1.55707 -2.713643,0.74432 -5.558993,-2.57984 z m 176.773116,2.59004 c -1.05052,-1.69978 5.86737,-9.48105 7.52065,-8.45926 1.65274,1.02145 0.85718,3.32967 -2.1646,6.28036 -3.08598,3.01338 -4.48785,3.58368 -5.35605,2.1789 z M 9.0313992,156.30039 c 0.635706,-1.65662 3.6465838,-3.21566 4.5211778,-2.34106 0.497465,0.49747 0.115148,1.23395 -1.072323,2.06569 -2.207861,1.54644 -3.9912528,1.68884 -3.4488548,0.27537 z m 196.9594308,-0.0964 c -0.77,-0.58451 -1.4,-1.47306 -1.4,-1.97455 0,-1.63426 2.18425,-0.96024 3.52643,1.08819 1.47562,2.25207 0.31175,2.73721 -2.12643,0.88636 z M 22.617808,151.74743 c -0.886019,-0.97905 -1.211812,-2.10851 -0.865346,-3 0.496543,-1.27767 0.763453,-1.18955 2.508455,0.82809 2.818196,3.25853 1.234612,5.35175 -1.643109,2.17191 z m 169.973022,0.0682 c 0,-1.93352 2.02436,-3.61328 3.6177,-3.00186 1.10676,0.4247 1.09808,0.68874 -0.0818,2.4895 -1.55171,2.36822 -3.53587,2.65573 -3.53587,0.51236 z m -167.233104,-2.9332 c -1.418236,-1.50965 -1.642527,-2.20911 -0.935191,-2.91645 1.058473,-1.05847 4.168308,1.20097 4.168308,3.02847 0,1.92577 -1.363075,1.87855 -3.233117,-0.11202 z m 164.389764,1.16513 c -0.56531,-0.91469 1.70496,-4.72988 2.81457,-4.72988 1.36349,0 1.68915,1.52503 0.67308,3.15201 -1.21813,1.95055 -2.81173,2.67152 -3.48765,1.57787 z M 29.472079,146.02057 c -1.75632,-1.88518 -1.854889,-3.17834 -0.282224,-3.70256 1.354071,-0.45136 3.82961,3.69104 2.813213,4.70744 -0.567494,0.5675 -1.358796,0.25332 -2.530989,-1.00488 z m 156.311121,0.88476 c -0.63845,-1.03303 1.94922,-4.78765 3.29964,-4.78765 1.29944,0 1.41729,1.12725 0.33021,3.15847 -0.93165,1.74082 -2.98992,2.66462 -3.62985,1.62918 z M 32.61899,142.17027 c -1.036623,-1.93694 -1.060614,-3.25259 -0.05931,-3.25259 0.909139,0 4.031164,3.21472 4.031164,4.15085 0,1.31592 -3.170613,0.59888 -3.971854,-0.89826 z m 149.29786,1.00676 c -0.5858,-0.5858 2.53067,-4.25935 3.61343,-4.25935 0.3633,0 0.66055,0.648 0.66055,1.44 0,2.45721 -2.79343,4.2999 -4.27398,2.81935 z m -145.815931,-3.8844 c -1.520534,-2.32062 -1.12771,-3.14236 1.15573,-2.41762 1.704597,0.54101 2.822646,2.52865 2.089576,3.71478 -0.769989,1.24587 -1.866123,0.80774 -3.245306,-1.29716 z m 142.889911,0.0531 c 0,-2.45511 2.95623,-4.39425 3.7089,-2.43285 0.47596,1.24036 -1.70287,4.40471 -3.03289,4.40471 -0.3718,0 -0.67601,-0.88734 -0.67601,-1.97186 z m -127.999987,-0.0901 c -6.019408,-2.62175 -12.8,-11.68624 -12.8,-17.11142 0,-3.0258 1.354744,-3.14932 2.485285,-0.22659 3.215228,8.31215 5.545186,11.22641 11.680289,14.60946 5.440798,3.00019 4.334281,5.21112 -1.365574,2.72855 z m 110.856017,0.55264 c -0.54497,-0.8818 0.61473,-1.82899 4.85279,-3.96357 4.00249,-2.01595 7.99643,-6.86482 9.79485,-11.89154 1.60517,-4.48656 3.29633,-5.4493 3.29633,-1.87651 0,3.69614 -1.85654,7.4854 -5.73898,11.71342 -4.3786,4.76834 -10.96903,8.01803 -12.20499,6.0182 z M 39.436206,136.33958 c -1.52855,-2.18231 -1.575606,-3.02199 -0.169353,-3.02199 1.280427,0 3.72399,2.53477 3.72399,3.86299 0,1.57293 -2.234078,1.04437 -3.554637,-0.841 z m 135.554634,0.71746 c 0,-0.5833 0.89061,-1.89723 1.97912,-2.91984 2.51393,-2.36172 3.94884,-0.19199 1.59391,2.41019 -1.62701,1.79783 -3.57303,2.07541 -3.57303,0.50965 z M 48.711025,132.26241 c -0.73161,-0.88154 38.869138,-36.368048 56.603015,-50.722383 1.62782,-1.3176 1.72607,-1.632344 0.63972,-2.049216 -0.90312,-0.34656 -9.889445,6.950888 -30.323199,24.624279 -25.34208,21.91867 -29.188149,24.97019 -30.205432,23.96536 -0.735116,-0.7261 -0.882871,-1.42004 -0.4,-1.87864 0.421143,-0.39997 13.365714,-11.57036 28.765714,-24.82307 15.4,-13.252718 28.102177,-24.394597 28.227067,-24.759725 0.1249,-0.365127 -9.595099,-9.311539 -21.599995,-19.880914 C 45.721293,26.190412 37.530276,18.313235 30.819938,9.0404831 l -1.647856,-2.277106 2.709381,1.394842 c 9.337543,4.8071529 24.45547,17.0357529 69.833377,56.4868799 6.92743,6.022642 7.17068,6.156 8.81538,4.833018 0.93025,-0.748288 11.76445,-9.991276 24.076,-20.539974 32.62308,-27.951898 41.63105,-34.945896 51.52603,-40.0059919 l 2.7414,-1.401904 -2.7414,3.4836549 c -7.2816,9.2531 -16.69243,18.038392 -58.54141,54.650175 -6.49,5.677807 -11.77824,10.532588 -11.75164,10.788402 0.0266,0.255813 12.99497,11.600013 28.8186,25.209321 15.82362,13.60932 28.64937,25.10682 28.50164,25.55001 -0.72389,2.17165 -4.04342,-0.38377 -30.97744,-23.84688 -24.81414,-21.616407 -31.51424,-26.86901 -30.23339,-23.701727 0.64438,1.593432 14.4789,12.802559 15.229,12.338969 0.47753,-0.29513 0.63109,-0.16068 0.34507,0.30211 -0.39013,0.63125 28.4844,26.535818 41.38304,37.126488 1.53277,1.25852 1.57162,1.4992 0.4297,2.66207 -1.14596,1.16698 -3.81652,-0.96275 -30.62665,-24.42423 C 112.5773,84.801043 109.18754,82.084595 107.97769,83.041763 107.22977,83.633467 93.923883,95.187602 78.409041,108.7176 c -15.51484,13.53 -28.346835,24.6 -28.515544,24.6 -0.168708,0 -0.70082,-0.47483 -1.182472,-1.05519 z M 105.65746,71.719249 C 102.81574,69.053052 74.488825,44.722977 66.239105,37.862703 c -9.408124,-7.823577 -12.591986,-9.365084 -4.84364,-2.345111 21.907786,19.848372 43.652325,38.374437 44.609855,38.007 0.89938,-0.345126 0.83117,-0.699139 -0.34786,-1.805343 z m 28.32737,-15.352975 c 16.36702,-14.338542 31.64021,-28.619033 25.40601,-23.754709 -13.60707,10.617116 -47.59422,40.068156 -47.12176,40.832628 0.76751,1.24186 1.12686,0.959264 21.71575,-17.077919 z"
       style="fill:#000000;stroke-width:1" />
  </g>
</svg>
